<?xml version="1.0" encoding="UTF-8" standalone="no"?>
<svg
   viewBox="0 0 128 128"
   version="1.1"
   id="svg3"
   width="128"
   height="128"
   sodipodi:docname="ifs-icon_png.svg"
   inkscape:version="1.4.3 (0d15f75, 2025-12-25)"
   inkscape:export-filename="ifs-icon_png.png"
   inkscape:export-xdpi="96"
   inkscape:export-ydpi="96"
   xmlns:inkscape="http://www.inkscape.org/namespaces/inkscape"
   xmlns:sodipodi="http://sodipodi.sourceforge.net/DTD/sodipodi-0.dtd"
   xmlns="http://www.w3.org/2000/svg"
   xmlns:svg="http://www.w3.org/2000/svg"
   xmlns:rdf="http://www.w3.org/1999/02/22-rdf-syntax-ns#"
   xmlns:cc="http://creativecommons.org/ns#"
   xmlns:dc="http://purl.org/dc/elements/1.1/">
  <sodipodi:namedview
     id="namedview1"
     pagecolor="#ffffff"
     bordercolor="#000000"
     borderopacity="0.25"
     inkscape:showpageshadow="2"
     inkscape:pageopacity="0.0"
     inkscape:pagecheckerboard="0"
     inkscape:deskcolor="#d1d1d1"
     inkscape:zoom="5.6052944"
     inkscape:cx="63.422182"
     inkscape:cy="62.886974"
     inkscape:window-width="1920"
     inkscape:window-height="1000"
     inkscape:window-x="-11"
     inkscape:window-y="-11"
     inkscape:window-maximized="1"
     inkscape:current-layer="svg3" />
  <defs
     id="defs1">
    <style
       id="style1">.canvas{fill: none; opacity: 0;}.light-defaultgrey{fill: #212121; opacity: 1;}.white{fill: #ffffff; opacity: 1;}</style>
  </defs>
  <title
     id="title1">SelectedClass</title>
  <g
     id="layer3"
     style="display:inline"
     transform="scale(5.3333333)">
    <path
       id="rect1-7"
       style="display:inline;fill:#007acc;stroke-width:3.02362"
       d="M 1.7142857,0 A 1.7142857,1.7142857 0 0 0 0,1.7142857 V 22.285715 A 1.7142857,1.7142857 0 0 0 1.7142857,24 H 22.285715 A 1.7142857,1.7142857 0 0 0 24,22.285715 V 1.7142857 A 1.7142857,1.7142857 0 0 0 22.285715,0 Z m 1.8080357,3.1741071 c 2.1861607,0.7315945 4.7072932,1.2972675 7.5636156,1.6941966 2.862831,0.389146 5.995384,0.5825892 9.39174,0.5825892 v 0.6194196 c -3.344305,0 -6.45563,0.1934432 -9.331472,0.5825894 C 8.2768696,7.0420478 5.7345077,7.607721 3.5223214,8.3470981 3.6784757,7.5298916 3.7566964,6.6920587 3.7566964,5.8359375 c 0,-0.8639041 -0.078221,-1.7512289 -0.234375,-2.6618304 z m 0,6.2444204 C 8.1353807,10.928414 13.789067,11.685267 20.477677,11.685267 v 0.629466 c -6.68861,0 -12.3422963,0.756853 -16.9553556,2.266739 0.1561543,-0.801639 0.234375,-1.639472 0.234375,-2.511159 0,-0.856121 -0.078221,-1.741184 -0.234375,-2.6517855 z m 0,6.2343735 c 2.1861607,0.731596 4.7072932,1.297268 7.5636156,1.694198 2.862831,0.389145 5.995384,0.582588 9.39174,0.582588 v 0.619419 c -6.662585,0 -12.3162706,0.759116 -16.9553556,2.276788 0.1561543,-0.817207 0.234375,-1.65504 0.234375,-2.511161 0,-0.863905 -0.078221,-1.751231 -0.234375,-2.661832 z" />
  </g>
  <metadata
     id="metadata1">
    <rdf:RDF>
      <cc:Work
         rdf:about="">
        <dc:title>SelectedClass</dc:title>
      </cc:Work>
    </rdf:RDF>
  </metadata>
</svg>
