<?xml version="1.0" encoding="UTF-8" standalone="no"?>
<svg
   viewBox="0 0 24 24"
   version="1.1"
   id="svg3"
   width="24"
   height="24"
   xmlns="http://www.w3.org/2000/svg"
   xmlns:svg="http://www.w3.org/2000/svg"
   xmlns:rdf="http://www.w3.org/1999/02/22-rdf-syntax-ns#"
   xmlns:cc="http://creativecommons.org/ns#"
   xmlns:dc="http://purl.org/dc/elements/1.1/">
  <defs
     id="defs1">
    <style
       id="style1">.canvas{fill: none; opacity: 0;}.light-defaultgrey{fill: #212121; opacity: 1;}.white{fill: #ffffff; opacity: 1;}</style>
  </defs>
  <title
     id="title1">SelectedClass</title>
  <g
     id="layer1"
     style="display:none">
    <path
       style="fill:#007acc;stroke-width:1.76378"
       id="rect1"
       width="14"
       height="14"
       x="1"
       y="1"
       d="m 2,1 h 12 a 1,1 45 0 1 1,1 v 12 a 1,1 135 0 1 -1,1 H 2 A 1,1 45 0 1 1,14 V 2 A 1,1 135 0 1 2,1 Z" />
    <path
       d="m 2.3367695,3.0703636 c 1.4606375,0.4086307 3.1451524,0.723798 5.0535448,0.9455019 1.9127398,0.2173568 4.0037117,0.3260352 6.2729167,0.3260352 v 0.3455972 c -2.234428,0 -4.3123588,0.1086784 -6.2337925,0.3260352 -1.9170867,0.2173567 -3.614643,0.532524 -5.092669,0.9455019 0.1043313,-0.4564492 0.1564969,-0.9237662 0.1564969,-1.4019511 0,-0.4825321 -0.052166,-0.9781055 -0.1564969,-1.4867203 z m 0,3.4885761 C 5.4188884,7.402284 9.1943756,7.8239561 13.663231,7.8239561 V 8.176074 c -4.4688554,0 -8.2443426,0.4216721 -11.3264615,1.2650164 0.1043313,-0.4477549 0.1564969,-0.915072 0.1564969,-1.4019511 0,-0.4781849 -0.052166,-0.9715848 -0.1564969,-1.4801996 z m 0,3.4820553 c 1.4606375,0.408631 3.1451524,0.723798 5.0535448,0.945502 1.9127398,0.217357 4.0037117,0.326035 6.2729167,0.326035 v 0.345597 c -4.4514669,0 -8.226954,0.423846 -11.3264615,1.271537 0.1043313,-0.456449 0.1564969,-0.923766 0.1564969,-1.401951 0,-0.482532 -0.052166,-0.978105 -0.1564969,-1.48672 z"
       id="text1-4"
       style="font-size:13.3544px;fill:#ffffff;stroke-width:1.11287"
       aria-label="𒀼"
       transform="matrix(0.87308481,0,0,1.0443743,1.0153215,-0.35499539)" />
  </g>
  <g
     id="layer2"
     style="display:none">
    <text
       xml:space="preserve"
       style="font-size:11.6349px;writing-mode:lr-tb;direction:ltr;display:inline;fill:#ffffff;stroke-width:0.969576"
       x="1.9013245"
       y="11.630232"
       id="text1"><tspan
         id="tspan1"
         x="1.9013245"
         y="11.630232"
         style="stroke-width:0.969576">𒀼</tspan></text>
  </g>
  <metadata
     id="metadata1">
    <rdf:RDF>
      <cc:Work
         rdf:about="">
        <dc:title>SelectedClass</dc:title>
      </cc:Work>
    </rdf:RDF>
  </metadata>
</svg>
